<?xml version="1.0" encoding="UTF-8"?>
<svg width="21px" height="20px" viewBox="0 0 21 20" version="1.1" xmlns="http://www.w3.org/2000/svg" xmlns:xlink="http://www.w3.org/1999/xlink">
    <title>Combined Shape</title>
    <g id="Page-1" stroke="none" stroke-width="1" fill="none" fill-rule="evenodd">
        <g id="ofdesign-Detail-2" transform="translate(-189.000000, -2704.000000)" fill="#323741">
            <g id="Group-4-Copy-3" transform="translate(137.000000, 2704.000000)">
                <path d="M62.7447183,0 C68.2627041,0 72.7359155,4.4771525 72.7359155,10 C72.7359155,15.5228475 68.2627041,20 62.7447183,20 C57.2267325,20 52.7535211,15.5228475 52.7535211,10 C52.7535211,4.4771525 57.2267325,0 62.7447183,0 Z M65.3977816,4.8 L63.9630005,4.8 C62.2395978,4.8 61.6330047,5.68403128 61.6330047,7.1706939 L61.6330047,8.26482062 L60.5587469,8.26482062 L60.5587469,10.0871613 L61.6330047,10.0871613 L61.6330047,15.3751481 L63.7832467,15.3751481 L63.7832467,10.0869549 L65.2178246,10.0869549 L65.4079372,8.26461424 L63.7832467,8.26461424 L63.785684,7.3525152 C63.785684,6.87722069 63.8300639,6.62254703 64.5009419,6.62254703 L65.3977816,6.62254703 L65.3977816,4.8 Z" id="Combined-Shape"></path>
            </g>
        </g>
    </g>
</svg>