<?xml version="1.0" encoding="UTF-8"?>
<svg width="14px" height="14px" viewBox="0 0 14 14" version="1.1" xmlns="http://www.w3.org/2000/svg" xmlns:xlink="http://www.w3.org/1999/xlink">
    <title>Combined Shape</title>
    <g id="Designs" stroke="none" stroke-width="1" fill="none" fill-rule="evenodd">
        <g id="ofdesign-04" transform="translate(-1156.000000, -3020.000000)" fill="#FFFFFF" fill-rule="nonzero">
            <g id="Group" transform="translate(0.000000, 2977.000000)">
                <path d="M1163.51927,43.0009738 C1164.18756,43.002874 1164.53116,43.0078604 1164.84621,43.0185379 L1165.01701,43.024942 C1165.13137,43.0296086 1165.24907,43.0350903 1165.38436,43.0415125 C1166.08936,43.0725962 1166.57151,43.1866038 1166.99393,43.34992 C1167.43457,43.5157675 1167.83633,43.7776 1168.16812,44.11456 C1168.50772,44.4463562 1168.76692,44.8454838 1168.9354,45.2912875 C1169.09871,45.7112725 1169.21272,46.1959562 1169.2438,46.90096 C1169.26601,47.4064145 1169.27369,47.6658728 1169.27627,48.4293745 L1169.27706,48.7634354 C1169.27715,48.8241852 1169.27722,48.8876197 1169.27728,48.9539611 L1169.27729,50.1091119 C1169.27629,51.0500181 1169.27173,51.4621016 1169.25994,51.8336103 L1169.25397,52.0039726 C1169.24964,52.1179973 1169.24456,52.2352921 1169.23864,52.37008 C1169.20756,53.0750838 1169.09345,53.5572362 1168.93023,53.9797525 C1168.58548,54.87136 1167.88047,55.5763638 1166.98876,55.92112 C1166.56888,56.0844362 1166.0842,56.1984438 1165.37919,56.2295275 C1165.2444,56.2354675 1165.12711,56.2405553 1165.01309,56.2448999 L1164.84272,56.2508732 C1164.49979,56.2617598 1164.12229,56.2664498 1163.32619,56.2678903 L1161.96307,56.2678903 C1160.7689,56.2657295 1160.51653,56.2562575 1159.91007,56.2295275 C1159.20497,56.1984438 1158.72292,56.0844362 1158.3004,55.92112 C1157.85976,55.7552725 1157.458,55.49344 1157.1262,55.15648 C1156.78924,54.8246838 1156.52751,54.4255562 1156.35903,53.9797525 C1156.19572,53.5597675 1156.08161,53.0750838 1156.05052,52.37008 C1156.02536,51.7972316 1156.01546,51.5403516 1156.0126,50.5076046 L1156.01262,48.7634172 C1156.01452,48.0951191 1156.0195,47.7515274 1156.03018,47.4364704 L1156.03659,47.2656708 C1156.04125,47.1513175 1156.04673,47.0336168 1156.05316,46.8983275 C1156.08424,46.1933238 1156.19825,45.7112725 1156.36156,45.2887562 C1156.52751,44.8481162 1156.78924,44.4463562 1157.1262,44.11456 C1157.458,43.7749675 1157.85713,43.5157675 1158.30303,43.3472875 C1158.72292,43.1840725 1159.2076,43.0699638 1159.9126,43.03888 C1160.48545,43.013717 1160.74233,43.0038149 1161.77508,43.0009556 Z M1163.11813,44.2055055 L1162.18723,44.2055055 C1160.83763,44.2069762 1160.60543,44.2160366 1159.97224,44.24416 C1159.32687,44.2727125 1158.97432,44.3815562 1158.74104,44.4722762 C1158.45329,44.5784875 1158.19409,44.7469675 1157.97903,44.9672875 C1157.75608,45.1799125 1157.5876,45.4416438 1157.48129,45.7293962 C1157.39057,45.9626762 1157.28172,46.3125962 1157.25327,46.9605962 C1157.22654,47.5582027 1157.21707,47.7997149 1157.21491,48.9713823 L1157.21491,50.3098527 C1157.21707,51.4810347 1157.22654,51.7210096 1157.25327,52.3208725 C1157.28172,52.96624 1157.39057,53.3187925 1157.48129,53.5520725 C1157.5876,53.8397238 1157.75608,54.0989238 1157.9764,54.31408 C1158.18892,54.5344 1158.45076,54.70288 1158.73841,54.8091925 C1158.97169,54.8999125 1159.32161,55.0087562 1159.96961,55.0372075 C1160.5673,55.0639375 1160.80883,55.0734095 1161.98049,55.0755703 L1163.31896,55.0755703 C1164.09973,55.0741298 1164.46661,55.0694398 1164.80219,55.0585532 L1164.96913,55.0525799 C1165.08105,55.0482353 1165.19658,55.0431475 1165.32988,55.0372075 C1165.97535,55.0087562 1166.3278,54.8999125 1166.56108,54.8091925 C1167.13912,54.58624 1167.59788,54.1274762 1167.82084,53.54944 C1167.91156,53.31616 1168.0204,52.96624 1168.04895,52.31824 C1168.0756,51.7183771 1168.08513,51.4803363 1168.08731,50.3097069 L1168.08731,48.9715204 C1168.08513,47.8003596 1168.0756,47.5604591 1168.04895,46.9605962 C1168.0204,46.3151275 1167.91156,45.9626762 1167.82084,45.7293962 C1167.71452,45.4416438 1167.54604,45.1824438 1167.32572,44.9672875 C1167.1132,44.7469675 1166.85137,44.5784875 1166.56372,44.4722762 C1166.33044,44.3815562 1165.98052,44.2727125 1165.33252,44.24416 C1165.1997,44.2382393 1165.08456,44.2331635 1164.97294,44.2288255 L1164.80637,44.2228585 C1164.4435,44.2110711 1164.0429,44.2065118 1163.11813,44.2055055 Z M1162.64716,46.22704 C1164.529,46.22704 1166.05564,47.7536875 1166.05564,49.63552 C1166.05564,51.5173525 1164.529,53.044 1162.64716,53.044 C1160.76543,53.044 1159.23868,51.5173525 1159.23868,49.63552 C1159.23868,47.7536875 1160.76543,46.22704 1162.64716,46.22704 Z M1162.64716,47.4245238 C1161.42639,47.4245238 1160.43617,48.4146475 1160.43617,49.63552 C1160.43617,50.8563925 1161.42639,51.8465162 1162.64716,51.8465162 C1163.86804,51.8465162 1164.85816,50.8563925 1164.85816,49.63552 C1164.85816,48.4146475 1163.86804,47.4245238 1162.64716,47.4245238 Z M1166.19041,45.2965525 C1166.62993,45.2965525 1166.98623,45.65275 1166.98623,46.0922762 C1166.98623,46.5317012 1166.62993,46.888 1166.19041,46.888 C1165.75098,46.888 1165.39468,46.5317012 1165.39468,46.0922762 C1165.39468,45.65275 1165.75098,45.2965525 1166.19041,45.2965525 Z" id="Combined-Shape"></path>
            </g>
        </g>
    </g>
</svg>