<?xml version="1.0" encoding="UTF-8"?>
<svg width="20px" height="20px" viewBox="0 0 20 20" version="1.1" xmlns="http://www.w3.org/2000/svg" xmlns:xlink="http://www.w3.org/1999/xlink">
    <title>instagram</title>
    <g id="Page-1" stroke="none" stroke-width="1" fill="none" fill-rule="evenodd">
        <g id="ofdesign-Detail-2" transform="translate(-137.000000, -2704.000000)" fill="#323741" fill-rule="nonzero">
            <g id="instagram" transform="translate(137.000000, 2704.000000)">
                <path d="M9.99119718,0 C15.5083394,0 19.9823944,4.47799684 19.9823944,10 C19.9823944,15.5220032 15.5083394,20 9.99119718,20 C4.47405494,20 0,15.5220032 0,10 C0,4.47799684 4.47405494,0 9.99119718,0 Z M10.2261447,4.25787043 L9.75624969,4.25787041 C9.68153555,4.25790972 9.61033665,4.25796974 9.54239361,4.25805258 L9.1717309,4.25884046 C8.33237564,4.26157943 8.108877,4.27040502 7.62588003,4.29244996 C7.01515105,4.32037352 6.59819052,4.41741945 6.23321669,4.55932617 C5.85040577,4.70352172 5.50357389,4.92950438 5.21711362,5.2217102 C4.92516502,5.50842285 4.69922885,5.85556031 4.55516024,6.23870852 C4.4133784,6.60400391 4.31641793,7.0213318 4.2886714,7.63259887 C4.26504912,8.14824956 4.2566705,8.36838867 4.25461354,9.35630893 L4.25461414,10.6436917 C4.2566743,11.6316151 4.26507319,11.8517745 4.28882384,12.3675537 C4.31657037,12.9786682 4.41368332,13.3961487 4.55546512,13.7612915 C4.69953374,14.1444397 4.92531751,14.4915771 5.21711362,14.7782898 C5.50372633,15.0704956 5.85040577,15.2964783 6.23336914,15.4406738 C6.59819052,15.5825805 7.01530349,15.6796265 7.62588003,15.70755 C8.10899739,15.729595 8.33242633,15.7384206 9.17182192,15.7411595 L9.54250734,15.7419474 C9.67840341,15.7421131 9.82732563,15.7421875 9.99134963,15.7421875 L10.2262971,15.7421296 C10.3010113,15.7420903 10.3722102,15.7420303 10.4401532,15.7419474 L10.8108159,15.7411595 C11.3144291,15.7395162 11.5963338,15.7356816 11.8456069,15.7281152 L12.0910056,15.7192477 C12.1738479,15.7158392 12.2600674,15.711959 12.3566668,15.70755 C12.9672433,15.6796265 13.3843563,15.5825805 13.7491777,15.4406738 C14.5198305,15.1423645 15.1290349,14.5326233 15.4270817,13.7612915 C15.5688635,13.3959961 15.6659764,12.9786682 15.693723,12.3674011 C15.7188216,11.8195223 15.7267117,11.6052483 15.7280946,10.449199 L15.7280948,9.550801 C15.7267133,8.39475172 15.7188377,8.18047773 15.6938755,7.63259887 C15.6659764,7.0213318 15.569016,6.60400391 15.4270817,6.23870852 C15.2831655,5.85556031 15.0572293,5.50857543 14.7654332,5.2217102 C14.4788205,4.92950438 14.1319886,4.70336914 13.7491777,4.55917359 C13.3842038,4.41741945 12.9672433,4.32037352 12.3565143,4.29260254 C11.8735174,4.27043714 11.6500187,4.2615862 10.8106635,4.25884188 L10.4400008,4.25805276 C10.3041147,4.25788689 10.1552051,4.2578125 9.99119718,4.2578125 Z M10.4542326,5.29275294 C11.5685966,5.29410091 11.7717024,5.30153063 12.3095586,5.32608031 C12.8689108,5.3515625 13.1725983,5.44509887 13.3747517,5.52368164 C13.6240133,5.61569215 13.8493397,5.76248168 14.0344183,5.95321656 C14.2249853,6.13845824 14.3716456,6.36413574 14.4635751,6.61346438 C14.5422412,6.8157959 14.6356952,7.11990355 14.6611549,7.67974852 C14.685683,8.21794296 14.6929858,8.42121265 14.6943058,9.53666404 L14.6943058,10.4635959 C14.6934808,11.1606871 14.6903188,11.5015044 14.682075,11.7905172 L14.6764969,11.960144 C14.6723424,12.0723319 14.667287,12.1859741 14.6611549,12.3205566 C14.6355427,12.8804016 14.5420887,13.1843567 14.4635751,13.3866882 C14.2705689,13.8874817 13.8751043,14.2832947 13.3747517,14.4764709 C13.1725983,14.5552063 12.8687583,14.6487427 12.3094062,14.6742248 C11.8054201,14.6972402 11.5954365,14.7051027 10.6527758,14.7070842 L9.32938848,14.7070842 C8.70102804,14.7057632 8.39828613,14.7018284 8.11690917,14.6925327 L7.94821276,14.6862899 C7.86271242,14.6828249 7.77365836,14.6788279 7.67283573,14.6742248 C7.11348359,14.6487427 6.80964363,14.5552063 6.60749018,14.4764709 C6.35822858,14.3844605 6.13290223,14.2376709 5.94782361,14.046936 C5.75725663,13.8616943 5.61074876,13.6361695 5.5186668,13.3866882 C5.4401532,13.1843567 5.34669917,12.8804016 5.32123942,12.3205566 C5.29671134,11.7822266 5.28928816,11.5789418 5.28794138,10.4635959 L5.28794138,9.53666404 C5.28928816,8.42121265 5.29671134,8.21794296 5.32123942,7.67974852 C5.34669917,7.11990355 5.4401532,6.8157959 5.5186668,6.61346438 C5.61074876,6.36398316 5.75740907,6.13845824 5.94797605,5.95321656 C6.13290223,5.76248168 6.35838107,5.61569215 6.60764266,5.52368164 C6.80964363,5.44509887 7.11348359,5.3515625 7.67283573,5.32592773 C7.77365836,5.32132467 7.86271665,5.31732771 7.94822405,5.3138627 L8.11693792,5.30761994 C8.42648996,5.29739458 8.76191888,5.29365602 9.52811664,5.29274771 Z M9.99119718,7.0513916 C8.36406024,7.0513916 7.04503195,8.37142945 7.04503195,10 C7.04503195,11.6285705 8.36406024,12.9486084 9.99119718,12.9486084 C11.6181817,12.9486084 12.93721,11.6285705 12.93721,10 C12.93721,8.37142945 11.6181817,7.0513916 9.99119718,7.0513916 Z M9.99119718,8.0859375 C11.0473955,8.0859375 11.9035748,8.94287109 11.9035748,10 C11.9035748,11.0571289 11.0473955,11.9140625 9.99119718,11.9140625 C8.93499885,11.9140625 8.0788196,11.0571289 8.0788196,10 C8.0788196,8.94287109 8.93499885,8.0859375 9.99119718,8.0859375 Z M13.0536845,6.24572754 C12.6734653,6.24572754 12.3652042,6.55426023 12.3652042,6.93481445 C12.3652042,7.31536867 12.6734653,7.62390137 13.0536845,7.62390137 C13.4339037,7.62390137 13.7420124,7.31536867 13.7421648,6.93481445 C13.7421648,6.55426023 13.4339037,6.24572754 13.0536845,6.24572754 Z" id="Combined-Shape"></path>
            </g>
        </g>
    </g>
</svg>