<?xml version="1.0" encoding="UTF-8"?>
<svg width="14px" height="13px" viewBox="0 0 14 13" version="1.1" xmlns="http://www.w3.org/2000/svg" xmlns:xlink="http://www.w3.org/1999/xlink">
    <title>twitter</title>
    <g id="Designs" stroke="none" stroke-width="1" fill="none" fill-rule="evenodd">
        <g id="ofdesign-04" transform="translate(-1191.000000, -3020.000000)" fill="#FFFFFF">
            <g id="Group" transform="translate(0.000000, 2977.000000)">
                <path d="M1197.65502,47.0123832 L1197.68428,47.5184412 L1197.19656,47.4564749 C1195.42124,47.2189375 1193.87028,46.4133758 1192.55342,45.0604452 L1191.90962,44.3891438 L1191.7438,44.8848741 C1191.39263,45.9899395 1191.61699,47.1569712 1192.34858,47.9418775 C1192.73876,48.3756415 1192.65096,48.4376078 1191.9779,48.1794149 C1191.7438,48.0967932 1191.53895,48.0348269 1191.51944,48.06581 C1191.45116,48.138104 1191.68527,49.077926 1191.87061,49.4497237 C1192.12422,49.9661094 1192.64121,50.4721674 1193.20697,50.7716712 L1193.68494,51.0092086 L1193.11918,51.0195363 C1192.57293,51.0195363 1192.55342,51.029864 1192.61195,51.246746 C1192.80704,51.9180474 1193.57764,52.6306597 1194.43604,52.9404911 L1195.04082,53.1573731 L1194.51407,53.48786 C1193.73371,53.9629348 1192.81679,54.2314554 1191.89987,54.2521108 C1191.46092,54.2624385 1191.1,54.3037494 1191.1,54.3347325 C1191.1,54.4380097 1192.29005,55.0163617 1192.98262,55.2435714 C1195.06032,55.9148728 1197.52821,55.6256968 1199.38157,54.4793205 C1200.69842,53.6634311 1202.01528,52.04198 1202.62981,50.4721674 C1202.96147,49.6356226 1203.29312,48.1071209 1203.29312,47.3738532 C1203.29312,46.8987783 1203.32238,46.8368121 1203.86863,46.2687878 C1204.19053,45.9383009 1204.49292,45.5768309 1204.55145,45.4735538 C1204.64899,45.2773272 1204.63924,45.2773272 1204.14176,45.4528984 C1203.31263,45.7627298 1203.19557,45.7214189 1203.60526,45.2566718 C1203.90765,44.9261849 1204.26857,44.3271775 1204.26857,44.1516064 C1204.26857,44.1206232 1204.12225,44.1722618 1203.95642,44.2652112 C1203.78084,44.3684884 1203.39066,44.5234041 1203.09803,44.6163535 L1202.57129,44.7919246 L1202.09332,44.4511101 C1201.82994,44.2652112 1201.45927,44.0586569 1201.26418,43.9966907 C1200.7667,43.8521027 1200.00585,43.8727581 1199.55715,44.0380015 C1198.33783,44.5027486 1197.56723,45.7007635 1197.65502,47.0123832 Z" id="twitter"></path>
            </g>
        </g>
    </g>
</svg>