<?xml version="1.0" encoding="UTF-8"?>
<svg width="21px" height="20px" viewBox="0 0 21 20" version="1.1" xmlns="http://www.w3.org/2000/svg" xmlns:xlink="http://www.w3.org/1999/xlink">
    <title>Combined Shape</title>
    <g id="Page-1" stroke="none" stroke-width="1" fill="none" fill-rule="evenodd">
        <g id="ofdesign-Detail-2" transform="translate(-163.000000, -2704.000000)" fill="#323741">
            <g id="Group-4-Copy-3" transform="translate(137.000000, 2704.000000)">
                <path d="M36.3679577,0 C41.8859436,0 46.3591549,4.4771525 46.3591549,10 C46.3591549,15.5228475 41.8859436,20 36.3679577,20 C30.8499719,20 26.3767606,15.5228475 26.3767606,10 C26.3767606,4.4771525 30.8499719,0 36.3679577,0 Z M38.1442128,5.63040121 C37.169622,6.00219892 36.5536806,6.9606108 36.6238511,8.00990656 L36.6472413,8.41475295 L36.257405,8.36517992 C34.8384008,8.17514998 33.5987213,7.53070062 32.5461633,6.44835617 L32.0315794,5.91131503 L31.899035,6.30789926 C31.6183529,7.19195159 31.7976776,8.12557695 32.3824321,8.75350198 C32.6943011,9.10051317 32.6241306,9.1500862 32.0861565,8.94353192 C31.899035,8.87743455 31.7353038,8.82786152 31.7197103,8.85264803 C31.6651332,8.91048323 31.8522547,9.66234082 32.0003925,9.95977899 C32.2031073,10.3728876 32.6163338,10.777734 33.068544,11.0173369 L33.4505836,11.2073669 L32.9983734,11.215629 C32.5617568,11.215629 32.5461633,11.2238912 32.5929437,11.3973968 C32.7488782,11.9344379 33.3648196,12.5045278 34.0509315,12.7523929 L34.5343285,12.9258985 L34.1133053,13.190288 C33.4895672,13.5703479 32.7566749,13.7851643 32.0237826,13.8016887 C31.67293,13.8099508 31.3844511,13.8429995 31.3844511,13.867786 C31.3844511,13.9504077 32.3356517,14.4130893 32.8892193,14.5948571 C34.549922,15.1318983 36.5224937,14.9005575 38.0038717,13.9834564 C39.0564297,13.3307449 40.1089878,12.033584 40.6001815,10.777734 C40.8652702,10.1084981 41.1303589,8.88569672 41.1303589,8.29908255 C41.1303589,7.91902267 41.1537491,7.86944964 41.5903658,7.41503022 C41.8476577,7.15064074 42.0893563,6.86146474 42.1361366,6.77884303 C42.2141039,6.62186177 42.2063072,6.62186177 41.8086741,6.76231868 C41.1459524,7.01018382 41.0523917,6.97713514 41.3798542,6.60533743 C41.6215527,6.34094794 41.9100316,5.86174201 41.9100316,5.72128509 C41.9100316,5.69649858 41.7930807,5.73780944 41.6605363,5.81216898 C41.5201952,5.89479069 41.2083262,6.01872326 40.9744244,6.0930828 L40.5534012,6.23353972 L40.1713616,5.96088806 C39.96085,5.81216898 39.6645744,5.64692555 39.5086399,5.59735252 C39.1110068,5.48168213 38.5028622,5.49820647 38.1442128,5.63040121 Z" id="Combined-Shape"></path>
            </g>
        </g>
    </g>
</svg>