<?xml version="1.0" encoding="UTF-8"?>
<svg width="12px" height="14px" viewBox="0 0 12 14" version="1.1" xmlns="http://www.w3.org/2000/svg" xmlns:xlink="http://www.w3.org/1999/xlink">
    <title>youtube</title>
    <g id="Designs" stroke="none" stroke-width="1" fill="none" fill-rule="evenodd">
        <g id="ofdesign-04" transform="translate(-1268.000000, -3020.000000)" fill="#FFFFFF">
            <g id="Group" transform="translate(0.000000, 2977.000000)">
                <path d="M1271.00546,52.5686311 L1271.01391,50.4170865 L1271.39905,50.4128703 L1271.78378,50.4078108 L1271.77936,50.0764147 L1271.77453,49.7445971 L1270.66298,49.7399592 L1269.55223,49.7353214 L1269.55223,50.0717769 L1269.55223,50.4078108 L1269.92812,50.4128703 L1270.304,50.4170865 L1270.30843,52.5509229 C1270.31044,53.7243011 1270.31607,54.6948783 1270.3205,54.7071054 C1270.32654,54.7243919 1270.40461,54.7286082 1270.66258,54.7248136 L1270.99701,54.7201757 L1271.00546,52.5686311 Z M1277.41678,52.4172683 C1277.40109,52.3742627 1277.42282,51.8771686 1277.44375,51.805071 C1277.49244,51.6355784 1277.59587,51.5529402 1277.75886,51.5529402 C1277.89448,51.5529402 1277.98061,51.6077512 1278.03856,51.7308653 C1278.07518,51.8088656 1278.0788,51.8421739 1278.08444,52.1305643 L1278.09007,52.4446738 L1277.75805,52.4446738 C1277.47272,52.4446738 1277.42523,52.4408792 1277.41678,52.4172683 L1277.41678,52.4172683 Z M1278.03654,54.7353541 C1278.36172,54.6396456 1278.58669,54.4069095 1278.6716,54.0784648 C1278.68569,54.0223888 1278.70219,53.8625936 1278.70782,53.7238794 L1278.71748,53.4717486 L1278.40438,53.4717486 L1278.09087,53.4717486 L1278.08323,53.6977388 C1278.07437,53.9545075 1278.04902,54.0426268 1277.95968,54.1248434 C1277.8647,54.2121194 1277.69004,54.2184438 1277.57655,54.1383353 C1277.44133,54.0426268 1277.40793,53.881145 1277.41477,53.3566454 L1277.4196,52.9847735 L1278.06794,52.9805572 L1278.71627,52.9754978 L1278.70782,52.4223278 C1278.69736,51.805071 1278.68528,51.7114706 1278.58628,51.4922264 C1278.39754,51.0769273 1277.87476,50.8673804 1277.44053,51.0330784 C1277.11294,51.1583006 1276.91936,51.3838691 1276.84169,51.7329734 C1276.81432,51.8560874 1276.81111,51.9665528 1276.81111,52.8696703 C1276.81111,53.9772751 1276.81473,54.0223888 1276.92258,54.2492223 C1277.11535,54.6527159 1277.59788,54.8635277 1278.03654,54.7353541 L1278.03654,54.7353541 Z M1275.46936,54.1046054 C1275.5092,54.0763567 1275.53536,54.0371457 1275.55588,53.9760103 C1275.58204,53.8954802 1275.58446,53.7930257 1275.58084,52.843108 C1275.57721,51.8531361 1275.5752,51.794952 1275.54462,51.730022 C1275.46614,51.564324 1275.26854,51.5483023 1275.08744,51.6933408 L1275.02788,51.7405626 L1275.02788,52.8696703 L1275.02788,53.9987779 L1275.08704,54.0459998 C1275.22105,54.1530921 1275.36794,54.1754382 1275.46936,54.1046054 L1275.46936,54.1046054 Z M1275.86174,54.7421001 C1275.96034,54.7121649 1276.07946,54.5894724 1276.13299,54.4642503 C1276.23601,54.2243465 1276.23642,54.2184438 1276.23642,52.8696703 C1276.23642,51.762487 1276.2332,51.625881 1276.20704,51.50614 C1276.12212,51.1228842 1275.937,50.9554997 1275.62551,50.9799539 C1275.45125,50.9942891 1275.31402,51.0668083 1275.14942,51.2333496 C1275.07778,51.3054472 1275.01379,51.3648961 1275.00655,51.3648961 C1275.00011,51.3648961 1274.99407,50.9980837 1274.99407,50.5503195 L1274.99407,49.735743 L1274.68983,49.735743 L1274.38558,49.735743 L1274.38558,52.2321756 L1274.38558,54.7290298 L1274.68983,54.7290298 L1274.99407,54.7290298 L1274.99407,54.560802 C1274.99407,54.4490718 1275.00051,54.3925743 1275.01299,54.3925743 C1275.02305,54.3925743 1275.09146,54.4516015 1275.16511,54.5241208 C1275.40175,54.7572786 1275.60659,54.8213653 1275.86174,54.7421001 L1275.86174,54.7421001 Z M1272.62328,54.7256568 C1272.74482,54.678435 1272.88768,54.5747156 1273.00802,54.4465421 C1273.06315,54.3875148 1273.11828,54.3394497 1273.13036,54.3394497 C1273.14646,54.3394497 1273.15209,54.3875148 1273.15209,54.5342397 L1273.15209,54.7290298 L1273.45634,54.7290298 L1273.76058,54.7290298 L1273.76058,52.8785244 L1273.76058,51.0284406 L1273.45634,51.0284406 L1273.15209,51.0284406 L1273.15209,52.455636 L1273.15209,53.8832531 L1273.02089,54.0194375 C1272.91706,54.1277947 1272.8736,54.1606813 1272.80921,54.1792328 C1272.70055,54.2108545 1272.63133,54.1889301 1272.58666,54.1084 C1272.55285,54.0485295 1272.55205,54.0207024 1272.54722,52.5378526 L1272.54279,51.0284406 L1272.23854,51.0284406 L1271.9351,51.0284406 L1271.9351,52.6310314 C1271.9351,54.3769742 1271.93671,54.4149203 1272.03008,54.5831481 C1272.1323,54.7669759 1272.37135,54.8247383 1272.62328,54.7256568 L1272.62328,54.7256568 Z M1275.54341,48.4940618 C1276.74068,48.521889 1278.03413,48.580073 1278.37782,48.6209705 C1278.82252,48.6740951 1279.13481,48.9152637 1279.35092,49.3727252 C1279.51432,49.7180348 1279.56623,49.9870306 1279.63264,50.8159423 C1279.68455,51.4719884 1279.69743,51.8809632 1279.68777,52.6386206 C1279.6769,53.5451111 1279.62177,54.3436659 1279.53927,54.7918517 C1279.45234,55.2657565 1279.24709,55.6696718 1278.98108,55.8884943 C1278.77624,56.0575654 1278.55771,56.133036 1278.21362,56.1532739 C1278.1114,56.1595982 1277.98222,56.1680307 1277.92628,56.1726686 C1277.72827,56.1886903 1276.66663,56.2333824 1276.08429,56.2506689 C1275.21904,56.2759663 1273.70505,56.2848204 1272.88165,56.269642 C1272.48645,56.2624744 1272.01881,56.2510905 1271.84214,56.2443446 C1270.65614,56.1996525 1269.84199,56.152009 1269.67941,56.1174359 C1269.4476,56.0685276 1269.18843,55.9040944 1269.03791,55.7105692 C1268.79725,55.400676 1268.66847,55.0245878 1268.60609,54.4456988 C1268.46161,53.0998767 1268.46483,51.5301725 1268.61494,50.2315722 C1268.68094,49.6623805 1268.84474,49.2512976 1269.11961,48.9645936 C1269.27656,48.8005821 1269.42748,48.7095114 1269.6283,48.6555436 C1269.91359,48.5790262 1271.47446,48.5128248 1273.09988,48.4897846 L1273.6139,48.4839817 C1274.29836,48.4782597 1274.97166,48.4808025 1275.54341,48.4940618 Z M1271.69842,43.0064904 C1271.70164,43.0098634 1271.8111,43.4264274 1271.9419,43.9327972 C1272.04924,44.3467548 1272.14177,44.7039814 1272.17341,44.8252778 L1272.18497,44.8692229 L1272.18497,44.8692229 C1272.18712,44.8767185 1272.24809,44.6446902 1272.32578,44.3339312 L1272.35561,44.2140201 C1272.54677,43.4399194 1272.65422,43.0128148 1272.65825,43.0090202 C1272.66247,43.0048039 1272.68833,43.0022742 1272.75202,43.0010093 L1273.07276,43.0005877 L1273.07276,43.0005877 L1273.41685,43.0026958 L1273.40921,43.0604582 C1273.40317,43.1072584 1273.16814,43.9336404 1272.92225,44.7730928 C1272.901,44.8472985 1272.85271,45.0151384 1272.80519,45.1816291 L1272.77013,45.30476 C1272.71338,45.5041879 1272.64497,45.7411403 1272.6176,45.8313677 L1272.5681,45.9958009 L1272.5681,47.0211891 C1272.5681,47.1414045 1272.56807,47.247601 1272.56796,47.3414196 L1272.56736,47.5873834 C1272.56551,48.011609 1272.55925,48.049318 1272.53872,48.0550099 C1272.47674,48.0727181 1271.82479,48.0642856 1271.81392,48.0457342 C1271.80909,48.0374423 1271.80614,47.8700577 1271.80489,47.6429276 L1271.80443,47.1910271 C1271.80544,46.8227432 1271.80957,46.4541899 1271.81634,46.3579754 C1271.83525,46.0936175 1271.79259,45.8853355 1271.61149,45.3532467 C1271.55273,45.1808027 1271.44649,44.8460336 1271.37566,44.6099245 C1270.94217,43.16541 1270.89478,43.0147208 1270.92021,43.0022892 L1270.93941,43.0022742 C1271.01444,43.0016183 1271.09337,43.0012123 1271.17081,43.001033 L1271.39329,43.0011522 C1271.56599,43.0017797 1271.69574,43.0036796 1271.69842,43.0064904 Z M1276.26092,48.1072912 C1276.09109,48.0836803 1275.99168,48.0149557 1275.92367,47.8737118 C1275.83835,47.69663 1275.83835,47.6974732 1275.83835,45.932979 L1275.83835,44.2865393 L1276.18124,44.2865393 L1276.52372,44.2865393 L1276.53096,45.8043838 C1276.53861,47.4529316 1276.53659,47.4145638 1276.63076,47.4394396 C1276.71729,47.4617857 1276.81307,47.413299 1276.9322,47.2859687 L1277.04649,47.1641195 L1277.05092,45.7251186 L1277.05494,44.2865393 L1277.39742,44.2814798 L1277.7399,44.2772636 L1277.7399,46.1614989 L1277.7399,48.0461558 L1277.69322,48.0562748 C1277.63728,48.0685019 1277.11812,48.0676586 1277.07627,48.0550099 C1277.05092,48.0478423 1277.04689,48.0233881 1277.04689,47.8758199 L1277.04689,47.7046408 L1276.9495,47.8041439 C1276.72574,48.0322422 1276.48428,48.1384914 1276.26092,48.1072912 L1276.26092,48.1072912 Z M1274.53524,47.3875799 C1274.65276,47.2939795 1274.65356,47.2859687 1274.6596,46.2264289 C1274.66483,45.4029983 1274.66201,45.2630193 1274.63827,45.1508674 C1274.60607,44.999083 1274.54973,44.927407 1274.43946,44.8957852 C1274.297,44.8561526 1274.1666,44.9413205 1274.12073,45.1044888 C1274.08612,45.2301326 1274.08652,47.0979246 1274.12153,47.2235684 C1274.14809,47.3180121 1274.23301,47.4213098 1274.29579,47.435645 C1274.37748,47.4537748 1274.47769,47.4335369 1274.53564,47.3875799 L1274.53524,47.3875799 Z M1274.26681,48.106448 C1273.96015,48.0676586 1273.67844,47.8787713 1273.54282,47.6207377 C1273.40478,47.3580663 1273.3919,47.2206171 1273.39995,46.0636822 C1273.40639,45.1677324 1273.4088,45.1116564 1273.44261,44.9830613 C1273.5235,44.6773843 1273.68005,44.4691023 1273.92272,44.3430368 C1274.25595,44.1705928 1274.61533,44.1929389 1274.92964,44.4062804 C1275.13005,44.5416215 1275.25159,44.738098 1275.31679,45.0302831 C1275.34536,45.1592999 1275.34818,45.2583814 1275.34818,46.1631854 C1275.34818,47.2636226 1275.34335,47.3272878 1275.23549,47.5655051 C1275.13207,47.7952898 1274.89784,47.9976691 1274.65356,48.0689235 C1274.54571,48.099702 1274.35857,48.1182534 1274.26681,48.106448 L1274.26681,48.106448 Z" id="youtube"></path>
            </g>
        </g>
    </g>
</svg>