<?xml version="1.0" encoding="utf-8"?>
<!-- Generator: Adobe Illustrator 25.3.1, SVG Export Plug-In . SVG Version: 6.00 Build 0)  -->
<svg version="1.1" id="Layer_1" xmlns="http://www.w3.org/2000/svg" xmlns:xlink="http://www.w3.org/1999/xlink" x="0px" y="0px"
	 viewBox="0 0 500 500" style="enable-background:new 0 0 500 500;" xml:space="preserve">
<style type="text/css">
	.st0{fill-rule:evenodd;clip-rule:evenodd;}
</style>
<g id="Designs">
</g>
<path class="st0" d="M478.4,94c-30.1,11.2-34.3,9.7-19.5-7.1c11-12,24.1-33.7,24.1-40.1c0-1.1-5.3,0.7-11.3,4.1
	c-6.4,3.7-20.5,9.4-31.2,12.7L421.4,70L404,57.7c-9.6-6.7-23-14.2-30.1-16.5c-18.1-5.2-45.7-4.5-62,1.5c-44.3,16.9-72.2,60.4-69,108
	L244,169l-17.7-2.2c-64.4-8.6-120.7-37.9-168.5-87L34.4,55.4l-6,18c-12.7,40.1-4.6,82.5,22,111c14.2,15.7,11,18-13.5,8.6
	c-8.5-3-15.9-5.2-16.6-4.1c-2.5,2.6,6,36.7,12.7,50.2c9.2,18.7,28,37.1,48.5,48l17.4,8.6l-20.5,0.4c-19.8,0-20.5,0.4-18.4,8.2
	c7.1,24.4,35.1,50.2,66.2,61.5l21.9,7.9l-19.1,12c-28.3,17.2-61.6,27-94.9,27.7c-15.9,0.4-29,1.9-29,3c0,3.7,43.2,24.7,68.3,33
	c75.4,24.4,165,13.9,232.3-27.7c47.8-29.6,95.6-88.5,117.9-145.4c12-30.4,24.1-85.8,24.1-112.5c0-17.2,1.1-19.5,20.9-40.1
	c11.7-12,22.7-25.1,24.8-28.9C496.8,87.7,496.4,87.7,478.4,94z"/>
</svg>
