<?xml version="1.0" encoding="utf-8"?>
<!-- Generator: Adobe Illustrator 25.3.1, SVG Export Plug-In . SVG Version: 6.00 Build 0)  -->
<svg version="1.1" id="Layer_1" xmlns="http://www.w3.org/2000/svg" xmlns:xlink="http://www.w3.org/1999/xlink" x="0px" y="0px"
	 viewBox="0 0 500 500" style="enable-background:new 0 0 500 500;" xml:space="preserve">
<g id="Designs">
</g>
<g>
	<path d="M495,224.9c0-2.5,0-4.8,0-7l0-12.3c-0.1-28.2-0.4-37.8-1.2-56.5c-1.1-26-5.4-43.9-11.4-59.5c-6.2-16.5-15.8-31.2-28.3-43.5
		c-12.3-12.4-27.1-22.1-43.4-28.2c-15.6-6-33.4-10.2-59.4-11.4c-5-0.2-9.3-0.4-13.6-0.6l-6.3-0.2c-11.6-0.4-24.3-0.6-49-0.6l-64.4,0
		c-38.1,0.1-47.6,0.5-68.8,1.4c-26,1.1-43.9,5.4-59.4,11.4C73.2,24,58.4,33.6,46.2,46.1C33.7,58.4,24.1,73.2,17.9,89.5
		c-6,15.6-10.2,33.4-11.4,59.4c-0.2,5-0.4,9.3-0.6,13.6l-0.2,6.3c-0.4,11.6-0.6,24.3-0.6,49v64.4c0.1,38.1,0.5,47.6,1.4,68.8
		c1.1,26,5.4,43.9,11.4,59.5c6.2,16.5,15.9,31.2,28.3,43.5c12.3,12.4,27.1,22.1,43.4,28.2c15.6,6,33.4,10.2,59.4,11.4
		c22.4,1,31.7,1.3,75.8,1.4h50.3c29.4-0.1,43.3-0.2,56-0.6l6.3-0.2c4.2-0.2,8.5-0.3,13.5-0.6c26-1.1,43.9-5.4,59.4-11.4
		c32.9-12.7,59-38.8,71.7-71.7c6-15.6,10.2-33.4,11.4-59.5c0.2-5,0.4-9.3,0.6-13.5l0.2-6.3c0.4-13.7,0.6-28.9,0.6-63.7L495,224.9z
		 M451,274.9c-0.1,43.2-0.4,52-1.4,74.2c-1.1,23.9-5.1,36.9-8.4,45.5c-8.2,21.3-25.2,38.3-46.5,46.5c-8.6,3.4-21.6,7.4-45.5,8.4
		c-4.9,0.2-9.2,0.4-13.3,0.6l-6.2,0.2c-12.4,0.4-25.9,0.6-54.8,0.6h-49.4c-43.3-0.1-52.2-0.4-74.3-1.4c-23.9-1.1-36.9-5.1-45.5-8.4
		c-10.6-3.9-20.3-10.1-28.1-18.3c-8.1-7.9-14.4-17.5-18.3-28.1c-3.3-8.6-7.4-21.6-8.4-45.5c-1-22.2-1.3-31-1.4-74.3v-49.4
		c0.1-43.3,0.4-52.2,1.4-74.3c1.1-23.9,5.1-36.9,8.4-45.5c3.9-10.6,10.1-20.3,18.4-28.1c7.9-8.1,17.5-14.4,28.1-18.3
		c8.6-3.4,21.6-7.4,45.5-8.4c23.4-1,32-1.4,81.8-1.4h34.4c34.2,0,48.9,0.2,62.4,0.6l6.1,0.2c4.1,0.2,8.4,0.3,13.3,0.6
		c23.9,1.1,36.9,5.1,45.5,8.4c10.6,3.9,20.3,10.1,28.1,18.3c8.1,7.9,14.4,17.5,18.3,28.1c3.3,8.6,7.4,21.6,8.4,45.5
		c1,22.2,1.3,31,1.4,74.3V274.9z"/>
	<path d="M250.1,124.2c-69.5,0-125.9,56.4-125.9,125.9s56.4,125.9,125.9,125.9S376,319.5,376,250S319.6,124.2,250.1,124.2z
		 M250.1,331.7c-45.1,0-81.7-36.6-81.7-81.7c0-45.1,36.6-81.7,81.7-81.7c45.1,0,81.7,36.6,81.7,81.7
		C331.7,295.1,295.2,331.7,250.1,331.7z"/>
	<ellipse transform="matrix(4.032026e-03 -1 1 4.032026e-03 260.2386 499.6391)" cx="380.9" cy="119.2" rx="29.4" ry="29.4"/>
</g>
</svg>
