<?xml version="1.0" encoding="utf-8"?>
<!-- Generator: Adobe Illustrator 25.3.1, SVG Export Plug-In . SVG Version: 6.00 Build 0)  -->
<svg version="1.1" id="Layer_1" xmlns="http://www.w3.org/2000/svg" xmlns:xlink="http://www.w3.org/1999/xlink" x="0px" y="0px"
	 viewBox="0 0 500 500" style="enable-background:new 0 0 500 500;" xml:space="preserve">
<g id="Designs">
</g>
<g>
	<path d="M329.9,193.5c8.2,1.2,17.2-2.8,25.4-11.2l3.6-3.7v6.3c0,5.4,0.1,6.3,1.1,6.6c1.5,0.5,20.7,0.5,22.8,0l1.7-0.4v-69.6V52.1
		l-12.6,0.2l-12.6,0.2l-0.1,53.1l-0.2,53.1l-4.2,4.5c-4.4,4.7-7.9,6.5-11.1,5.7c-3.5-0.9-3.4,0.5-3.7-60.3l-0.3-56H327h-12.7v60.8
		c0,65.1,0,65.1,3.1,71.6C320,190.1,323.7,192.6,329.9,193.5z"/>
	<path d="M229.6,175.5c5,9.5,15.4,16.5,26.7,17.9c3.4,0.4,10.3-0.2,14.3-1.4c9-2.6,17.7-10.1,21.5-18.6c4-8.8,4.2-11.1,4.2-51.8
		c0-33.4-0.1-37.1-1.2-41.8c-2.4-10.8-6.9-18-14.3-23c-11.6-7.9-24.9-8.7-37.2-2.3c-9,4.7-14.7,12.3-17.7,23.6
		c-1.2,4.7-1.3,6.8-1.6,39.9C224,160.7,224.5,165.8,229.6,175.5z M250.9,82.6c1.7-6,6.5-9.2,11.8-7.7c4.1,1.2,6.1,3.8,7.3,9.4
		c0.9,4.1,1,9.3,0.8,39.7c-0.2,39.1-0.3,39.4-4.6,42.9h0c-2.1,1.7-5.8,2.4-8.9,1.8c-2.3-0.5-5.5-4.3-6.4-7.8
		C249.7,156.2,249.7,87.3,250.9,82.6z"/>
	<path d="M385.2,353.6h12.3l-0.2-11.6c-0.2-10.6-0.3-11.9-1.7-14.8c-2.1-4.5-5.3-6.6-10.3-6.6c-6,0-9.8,3-11.6,9.3
		c-0.8,2.7-1.6,21-1,22.6C372.9,353.4,374.7,353.6,385.2,353.6z"/>
	<path d="M158.3,91.8c6.7,19.6,8.3,27.3,7.6,37.1c-0.2,3.6-0.4,17.2-0.4,30.7l0,16.7c0,8.4,0.2,14.6,0.3,14.9
		c0.4,0.7,24.5,1,26.7,0.3c0.8-0.2,1-1.6,1.1-17.3l0-9.1c0-3.5,0-7.4,0-11.8v-37.8l1.8-6.1c1-3.3,3.5-12.1,5.6-19.4l1.3-4.5
		c1.8-6.1,3.5-12.3,4.3-15.1c9.1-31,17.8-61.5,18-63.2l0.3-2.1L212.3,5l-11.8,0c-2.4,0-3.3,0.1-3.5,0.3c-0.1,0.1-4.1,15.9-11.2,44.5
		l-1.1,4.4c-2.9,11.5-5.1,20-5.2,19.8l-0.4-1.6c-1.2-4.5-4.6-17.7-8.5-32.9c-4.8-18.7-8.9-34.1-9-34.2c-0.1-0.1-4.9-0.2-11.3-0.2
		l-8.2,0c-2.9,0-5.8,0-8.5,0l-0.7,0c-0.9,0.5,0.8,6,16.8,59.3C152.2,73.1,156.2,85.5,158.3,91.8z"/>
	<path d="M454.4,293.4c-2.5-30.6-4.4-40.5-10.4-53.3c-8-16.9-19.5-25.8-35.9-27.7c-12.7-1.5-60.4-3.7-104.6-4.7
		c-21.1-0.5-46-0.6-71.2-0.4l-19,0.2c-60,0.9-117.6,3.3-128.1,6.1c-7.4,2-13,5.4-18.8,11.4c-10.1,10.6-16.2,25.8-18.6,46.8
		c-5.5,47.9-5.7,105.9-0.3,155.5c2.3,21.4,7.1,35.2,15.9,46.7c5.6,7.1,15.1,13.2,23.7,15c6,1.3,36,3,79.8,4.7
		c6.5,0.2,23.8,0.7,38.4,0.9c30.4,0.6,86.3,0.2,118.2-0.7c21.5-0.6,60.7-2.3,68-2.9c2.1-0.2,6.8-0.5,10.6-0.7
		c12.7-0.7,20.8-3.5,28.3-9.8c9.8-8.1,17.4-23,20.6-40.5c3-16.5,5.1-46,5.5-79.5C456.8,332.8,456.3,317.7,454.4,293.4z M150.5,278.6
		l-14.2,0.2l-0.3,79.4l-0.3,79.4l-12.3,0.2c-9.5,0.1-12.4,0-12.6-0.7c-0.2-0.5-0.4-36.3-0.4-79.6l-0.2-78.8l-13.9-0.2l-13.9-0.2V266
		v-12.4l41,0.2l41,0.2l0.2,12.2l0.2,12.2L150.5,278.6z M237.6,369.6v68.3h-11.2h-11.2v-7.2c0-5.4-0.2-7.2-0.8-7.2
		c-0.4,0-2.5,1.8-4.5,4c-4.4,4.7-9.7,8.6-14.2,10.3c-9.3,3.7-18.1,1.5-21.9-5.3c-3.4-6.2-3.5-7.6-3.5-72v-59.1h11.2h11.2l0.2,55.7
		c0.2,54.7,0.2,55.8,1.5,58c1.6,3,4.2,3.8,8.2,2.6c2.4-0.7,4-1.9,7.8-5.9l4.8-5V354v-52.7h11.2h11.2V369.6z M325.2,428.1
		c-2,4.6-6.4,9.1-10,10.3c-9.4,2.9-17,0.6-25.7-8c-2.7-2.7-5.2-4.9-5.6-4.9c-0.5,0-0.7,2.1-0.7,6.2v6.2h-11.2h-11.2v-92.2v-92.1
		h11.2h11.2v30.1c0,16.5,0.2,30.1,0.5,30.1c0.3,0,2.6-2.2,5.3-4.9c6.1-6.1,11.1-8.8,17.6-9.4c11.5-0.9,18.3,5.3,21.5,19.4
		c1,4.4,1.1,9.5,1.1,50.3C329,419,329,419.2,325.2,428.1z M420.2,400.8c-0.2,5.1-0.8,11-1.3,13.1c-3.1,12.1-11.4,20.7-23.4,24.2
		c-16.2,4.7-34-3-41.1-17.9c-4-8.4-4.1-10-4.1-50.9c0-33.3,0.1-37.4,1.1-42c2.9-12.9,10-21.2,22.1-25.8c16-6.1,35.3,1.6,42.3,16.9
		c3.7,8.1,4.1,11.5,4.5,34.3l0.3,20.4l-23.9,0.2l-23.9,0.2l-0.2,13.7c-0.3,19.4,1,25.3,6,28.9c4.2,3,10.6,2.7,14.1-0.5
		c3.3-3,4.2-6.3,4.6-15.8l0.3-8.3H409h11.6L420.2,400.8z"/>
	<path d="M303.5,327.2c-2.9-6.1-10.2-6.7-16.9-1.4l-2.2,1.7v41.7v41.7l2.2,1.7c4.9,4,10.4,4.8,14.1,2.2c1.5-1,2.4-2.5,3.2-4.7
		c1-3,1.1-6.8,0.9-41.8C304.7,331.7,304.6,329.6,303.5,327.2z"/>
</g>
</svg>
