<?xml version="1.0" encoding="utf-8"?>
<!-- Generator: Adobe Illustrator 25.3.1, SVG Export Plug-In . SVG Version: 6.00 Build 0)  -->
<svg version="1.1" id="Layer_1" xmlns="http://www.w3.org/2000/svg" xmlns:xlink="http://www.w3.org/1999/xlink" x="0px" y="0px"
	 viewBox="0 0 500 500" style="enable-background:new 0 0 500 500;" xml:space="preserve">
<style type="text/css">
	.st0{fill-rule:evenodd;clip-rule:evenodd;fill:#333842;}
</style>
<g id="Page-1">
	<g id="ofdesign-Detail-2" transform="translate(-163.000000, -2704.000000)">
		<g id="Group-4-Copy-3" transform="translate(137.000000, 2704.000000)">
			<path id="Combined-Shape" class="st0" d="M276,5c135.2,0,244.8,109.7,244.8,245S411.2,495,276,495S31.2,385.3,31.2,250
				S140.8,5,276,5z M319.5,142.9c-23.9,9.1-39,32.6-37.2,58.3l0.6,9.9l-9.6-1.2c-34.8-4.7-65.1-20.4-90.9-47l-12.6-13.2l-3.2,9.7
				c-6.9,21.7-2.5,44.5,11.8,59.9c7.6,8.5,5.9,9.7-7.3,4.7c-4.6-1.6-8.6-2.8-9-2.2c-1.3,1.4,3.2,19.8,6.9,27.1
				c5,10.1,15.1,20,26.2,25.9l9.4,4.7l-11.1,0.2c-10.7,0-11.1,0.2-9.9,4.5c3.8,13.2,18.9,27.1,35.7,33.2l11.8,4.3l-10.3,6.5
				c-15.3,9.3-33.2,14.6-51.2,15c-8.6,0.2-15.7,1-15.7,1.6c0,2,23.3,13.4,36.9,17.8c40.7,13.2,89,7.5,125.3-15
				c25.8-16,51.6-47.8,63.6-78.5c6.5-16.4,13-46.4,13-60.7c0-9.3,0.6-10.5,11.3-21.7c6.3-6.5,12.2-13.6,13.4-15.6
				c1.9-3.8,1.7-3.8-8-0.4c-16.2,6.1-18.5,5.3-10.5-3.8c5.9-6.5,13-18.2,13-21.7c0-0.6-2.9,0.4-6.1,2.2c-3.4,2-11.1,5.1-16.8,6.9
				l-10.3,3.4l-9.4-6.7c-5.2-3.6-12.4-7.7-16.2-8.9C343.2,139.3,328.3,139.7,319.5,142.9z"/>
		</g>
	</g>
</g>
</svg>
