<?xml version="1.0" encoding="utf-8"?>
<!-- Generator: Adobe Illustrator 25.3.1, SVG Export Plug-In . SVG Version: 6.00 Build 0)  -->
<svg version="1.1" id="Layer_1" xmlns="http://www.w3.org/2000/svg" xmlns:xlink="http://www.w3.org/1999/xlink" x="0px" y="0px"
	 viewBox="0 0 500 500" style="enable-background:new 0 0 500 500;" xml:space="preserve">
<style type="text/css">
	.st0{fill:#333842;}
</style>
<g id="Page-1">
	<g id="ofdesign-Detail-2" transform="translate(-137.000000, -2704.000000)">
		<g id="instagram" transform="translate(137.000000, 2704.000000)">
			<path id="Combined-Shape" class="st0" d="M250,5c135.2,0,244.8,109.7,244.8,245S385.2,495,250,495S5.2,385.3,5.2,250
				S114.8,5,250,5z M255.8,109.3h-11.5c-1.8,0-3.6,0-5.2,0l-9.1,0c-20.6,0.1-26,0.3-37.9,0.8c-15,0.7-25.2,3.1-34.1,6.5
				c-9.4,3.5-17.9,9.1-24.9,16.2c-7.2,7-12.7,15.5-16.2,24.9c-3.5,8.9-5.8,19.2-6.5,34.2c-0.6,12.6-0.8,18-0.8,42.2l0,31.5
				c0.1,24.2,0.3,29.6,0.8,42.2c0.7,15,3.1,25.2,6.5,34.1c3.5,9.4,9.1,17.9,16.2,24.9c7,7.2,15.5,12.7,24.9,16.2
				c8.9,3.5,19.2,5.9,34.1,6.5c11.8,0.5,17.3,0.8,37.9,0.8l9.1,0c3.3,0,7,0,11,0l5.8,0c1.8,0,3.6,0,5.2,0l9.1,0
				c12.3,0,19.2-0.1,25.4-0.3l6-0.2c2-0.1,4.1-0.2,6.5-0.3c15-0.7,25.2-3.1,34.1-6.5c18.9-7.3,33.8-22.2,41.1-41.1
				c3.5-8.9,5.9-19.2,6.5-34.2c0.6-13.4,0.8-18.7,0.8-47v-22c0-28.3-0.2-33.6-0.8-47c-0.7-15-3.1-25.2-6.5-34.2
				c-3.5-9.4-9.1-17.9-16.2-24.9c-7-7.2-15.5-12.7-24.9-16.2c-8.9-3.5-19.2-5.9-34.1-6.5c-11.8-0.5-17.3-0.8-37.9-0.8l-9.1,0
				c-3.3,0-7,0-11,0L255.8,109.3z M261.3,134.7c27.3,0,32.3,0.2,45.5,0.8c13.7,0.6,21.1,2.9,26.1,4.8c6.1,2.3,11.6,5.9,16.2,10.5
				c4.7,4.5,8.3,10.1,10.5,16.2c1.9,5,4.2,12.4,4.8,26.1c0.6,13.2,0.8,18.2,0.8,45.5v22.7c0,17.1-0.1,25.4-0.3,32.5l-0.1,4.2
				c-0.1,2.7-0.2,5.5-0.4,8.8c-0.6,13.7-2.9,21.2-4.8,26.1c-4.7,12.3-14.4,22-26.7,26.7c-5,1.9-12.4,4.2-26.1,4.8
				c-12.3,0.6-17.5,0.8-40.6,0.8h-32.4c-15.4,0-22.8-0.1-29.7-0.4l-4.1-0.2c-2.1-0.1-4.3-0.2-6.7-0.3c-13.7-0.6-21.1-2.9-26.1-4.8
				c-6.1-2.3-11.6-5.9-16.2-10.5c-4.7-4.5-8.3-10.1-10.5-16.2c-1.9-5-4.2-12.4-4.8-26.1c-0.6-13.2-0.8-18.2-0.8-45.5v-22.7
				c0-27.3,0.2-32.3,0.8-45.5c0.6-13.7,2.9-21.2,4.8-26.1c2.3-6.1,5.8-11.6,10.5-16.2c4.5-4.7,10.1-8.3,16.2-10.5
				c4.9-1.9,12.4-4.2,26.1-4.8c2.5-0.1,4.7-0.2,6.7-0.3l4.1-0.2c7.6-0.3,15.8-0.3,34.6-0.4L261.3,134.7z M250,177.8
				c-39.9,0-72.2,32.3-72.2,72.2s32.3,72.2,72.2,72.2c39.9,0,72.2-32.3,72.2-72.2S289.9,177.8,250,177.8z M250,203.1
				c25.9,0,46.9,21,46.9,46.9s-21,46.9-46.9,46.9s-46.9-21-46.9-46.9S224.1,203.1,250,203.1z M325,158c-9.3,0-16.9,7.6-16.9,16.9
				s7.6,16.9,16.9,16.9c9.3,0,16.9-7.6,16.9-16.9C341.9,165.6,334.3,158,325,158z"/>
		</g>
	</g>
</g>
</svg>
